<?xml version="1.0" encoding="UTF-8" standalone="no"?>
<!-- Created with Inkscape (http://www.inkscape.org/) -->

<svg
   xmlns:dc="http://purl.org/dc/elements/1.1/"
   xmlns:cc="http://creativecommons.org/ns#"
   xmlns:rdf="http://www.w3.org/1999/02/22-rdf-syntax-ns#"
   xmlns:svg="http://www.w3.org/2000/svg"
   xmlns="http://www.w3.org/2000/svg"
   xmlns:sodipodi="http://sodipodi.sourceforge.net/DTD/sodipodi-0.dtd"
   xmlns:inkscape="http://www.inkscape.org/namespaces/inkscape"
   width="210mm"
   height="297mm"
   viewBox="0 0 210 297"
   version="1.1"
   id="svg8"
   inkscape:version="0.92.4 (5da689c313, 2019-01-14)"
   sodipodi:docname="fire_.svg"
   inkscape:export-filename="/media/meg/HDD/Site/Brandbook/Working files/fire.png"
   inkscape:export-xdpi="96"
   inkscape:export-ydpi="96">
  <defs
     id="defs2" />
  <sodipodi:namedview
     id="base"
     pagecolor="#ffffff"
     bordercolor="#666666"
     borderopacity="1.0"
     inkscape:pageopacity="0.0"
     inkscape:pageshadow="2"
     inkscape:zoom="0.49497475"
     inkscape:cx="-112.88672"
     inkscape:cy="738.88881"
     inkscape:document-units="mm"
     inkscape:current-layer="layer1"
     showgrid="false"
     inkscape:window-width="1920"
     inkscape:window-height="1044"
     inkscape:window-x="0"
     inkscape:window-y="0"
     inkscape:window-maximized="1" />
  <metadata
     id="metadata5">
    <rdf:RDF>
      <cc:Work
         rdf:about="">
        <dc:format>image/svg+xml</dc:format>
        <dc:type
           rdf:resource="http://purl.org/dc/dcmitype/StillImage" />
        <dc:title></dc:title>
      </cc:Work>
    </rdf:RDF>
  </metadata>
  <g
     inkscape:label="Layer 1"
     inkscape:groupmode="layer"
     id="layer1">
    <path
       style="fill:#1a1a1a;stroke:#000000;stroke-width:0;stroke-linecap:butt;stroke-linejoin:miter;stroke-miterlimit:4;stroke-dasharray:none;stroke-opacity:1"
       d="m 112.95658,295.60563 c 2.91534,-17.95411 20.17047,-33.56992 36.58999,-49.98944 15.02145,-15.02145 18.67618,-28.29838 19.46359,-31.70941 12.21051,-48.65114 -5.4814,-82.22874 -8.06018,-92.32335 4.45771,66.78652 -34.16637,82.78088 -40.20813,96.35338 42.01468,-63.99927 23.90496,-99.65066 23.90496,-99.65066 -15.56197,-40.835386 -9.09834,-17.34473 -35.90329,-82.065126 3.92663,38.97292 -6.76618,60.24865 -21.24919,76.936176 -16.19779,23.14556 -41.42581,46.69238 -40.84943,74.37154 -0.44194,46.13936 22.42991,63.27891 41.03267,85.72878 -13.62975,-21.92734 -32.02963,-37.82158 -30.04181,-79.50059 3.30672,-25.71536 15.67306,-39.29663 35.53713,-61.18263 11.39563,-13.3318 23.22913,-26.26542 24.18,-49.092526 10.05403,20.890276 21.83511,39.856226 15.38728,79.134326 -7.95787,26.68191 -23.12583,48.10251 -19.60034,83.16426 1.62188,-7.01687 2.46561,-9.63097 9.88757,-20.7281 14.91409,-22.29964 34.88607,-32.19477 41.03673,-53.64344 2.25111,26.431 -3.44807,44.72857 -11.90687,60.44976 -14.11751,20.65616 -36.58559,35.572 -39.20068,63.74705 z"
       id="path839"
       inkscape:connector-curvature="0"
       sodipodi:nodetypes="cscccccccccccccsccc" />
    <path
       style="fill:#000000;stroke:#000000;stroke-width:0;stroke-linecap:butt;stroke-linejoin:miter;stroke-miterlimit:4;stroke-dasharray:none;stroke-opacity:1"
       d="M 66.9781,119.56841 C 101.00772,88.505234 109.59592,57.010964 86.21195,10.575634 93.14614,51.427254 79.75896,73.600784 62.39855,99.601704 38.07611,146.01619 41.61991,154.3287 39.50082,170.67606 47.48282,114.58597 83.23795,91.590534 90.97474,62.049554 92.9687,75.750244 85.49762,94.634174 66.9781,119.56841 Z"
       id="path841"
       inkscape:connector-curvature="0"
       sodipodi:nodetypes="cccccc" />
  </g>
</svg>
