<?xml version="1.0" encoding="UTF-8" standalone="no"?>
<!-- Created with Inkscape (http://www.inkscape.org/) -->

<svg
   xmlns:dc="http://purl.org/dc/elements/1.1/"
   xmlns:cc="http://creativecommons.org/ns#"
   xmlns:rdf="http://www.w3.org/1999/02/22-rdf-syntax-ns#"
   xmlns:svg="http://www.w3.org/2000/svg"
   xmlns="http://www.w3.org/2000/svg"
   xmlns:sodipodi="http://sodipodi.sourceforge.net/DTD/sodipodi-0.dtd"
   xmlns:inkscape="http://www.inkscape.org/namespaces/inkscape"
   width="210mm"
   height="297mm"
   viewBox="0 0 210 297"
   version="1.1"
   id="svg1905"
   inkscape:version="0.92.4 (5da689c313, 2019-01-14)"
   sodipodi:docname="drawing.svg">
  <defs
     id="defs1899" />
  <sodipodi:namedview
     id="base"
     pagecolor="#ffffff"
     bordercolor="#666666"
     borderopacity="1.0"
     inkscape:pageopacity="0.0"
     inkscape:pageshadow="2"
     inkscape:zoom="0.41041915"
     inkscape:cx="-375.38974"
     inkscape:cy="431.157"
     inkscape:document-units="mm"
     inkscape:current-layer="layer1"
     showgrid="false"
     inkscape:window-width="1920"
     inkscape:window-height="1044"
     inkscape:window-x="0"
     inkscape:window-y="0"
     inkscape:window-maximized="1" />
  <metadata
     id="metadata1902">
    <rdf:RDF>
      <cc:Work
         rdf:about="">
        <dc:format>image/svg+xml</dc:format>
        <dc:type
           rdf:resource="http://purl.org/dc/dcmitype/StillImage" />
        <dc:title></dc:title>
      </cc:Work>
    </rdf:RDF>
  </metadata>
  <g
     inkscape:label="Layer 1"
     inkscape:groupmode="layer"
     id="layer1">
    <path
       d="M 88.770967,62.391926 V 4.882143 H 122.924 v 57.069953 c 4.11266,-0.595874 10.28414,-0.632964 18.51456,-0.111026 5.97673,0.522745 11.11714,0.70628 15.42133,0.550856 h 45.38141 l -0.15587,36.170451 -82.45068,-0.117742 c -0.42311,-0.125889 -1.12228,0.04529 -2.09748,0.513578 -2.1146,0.833399 -4.39868,0.489742 -6.85248,-1.03082 -2.55852,-1.812884 -3.83767,-2.719442 -3.83767,-2.719442 3.95643,1.374501 7.29579,1.183411 10.01808,-0.573059 1.69229,-0.728083 3.1006,-2.995685 4.22471,-6.802793 1.62895,-0.496459 3.3577,-1.109237 5.18629,-1.838551 2.97021,-0.646186 5.19441,-2.34501 6.67261,-5.096444 0.42047,-1.002885 0.6081,-1.964438 0.56308,-2.884226 2.28204,-1.45414 5.2533,-6.137038 8.9139,-14.048664 -4.03851,-0.206975 -8.79269,-0.06477 -14.26273,0.426395 -7.59261,0.283786 -14.911,3.146431 -21.955,8.587748 -3.75126,2.925806 -7.192906,5.694763 -10.32466,8.306842 -2.586196,1.328254 -5.348838,1.333765 -8.287678,0.01649 -1.747711,-1.003505 -3.232008,-3.098351 -4.45289,-6.284103 -2.431173,-4.079873 -5.299329,-5.955733 -8.604469,-5.62733 -1.241655,0.10796 -2.683784,0.873345 -4.32595,2.296524 -1.003133,1.131869 -2.058373,1.778054 -3.165814,1.938587 1.467795,0.927124 2.801962,1.755235 4.002471,2.48455 2.463374,2.127448 4.525802,5.092357 6.187754,8.894975 4.967677,12.215191 7.451422,18.322668 7.451422,18.322668 4.593638,7.42105 10.36825,14.2271 17.323434,20.41832 6.73106,6.04354 13.90135,13.18467 21.51104,21.42367 8.74303,8.7666 14.68284,21.45055 17.81971,38.05199 1.38587,17.55647 -1.31157,34.51709 -8.09275,50.88181 -5.99523,15.55476 -10.24725,30.44232 -12.75583,44.66246 8.55172,-10.11887 15.8717,-20.82125 21.96025,-32.10707 7.14363,-12.12308 11.61218,-26.10123 13.40571,-41.93447 1.51507,-14.81441 -2.00601,-29.72603 -10.56321,-44.73501 -6.57399,-10.76305 -14.94439,-20.64872 -25.111,-29.65716 10.52313,5.09299 22.22104,14.61295 35.09382,28.56034 10.97087,13.38698 15.29073,28.80159 12.95959,46.24376 -2.64815,16.96792 -10.37176,34.13896 -23.17059,51.51311 -9.02981,10.75087 -14.60865,18.57264 -16.7365,23.46535 -3.60522,8.16525 -5.40792,12.24775 -5.40792,12.24775 -22.76862,0 -34.153033,0 -34.153033,0 0,-18.02173 0,-27.03263 0,-27.03263 10.444262,12.98338 17.708643,21.16107 21.793003,24.53302 -0.86662,-6.83173 -1.25224,-14.24888 -1.15732,-22.25178 -0.27216,-10.19081 1.29526,-21.35666 4.70225,-33.49747 3.94012,-12.14508 5.91029,-18.21755 5.91029,-18.21755 -6.30063,10.606 -10.69198,19.23043 -13.17429,25.87331 -2.62125,7.62029 -3.6272,14.74904 -3.0177,21.38597 0.61849,8.16913 0.92774,12.25368 0.92774,12.25368 -3.78733,-3.85455 -8.237987,-9.39345 -13.351522,-16.61713 -5.685381,-7.88248 -9.074641,-17.56117 -10.167807,-29.03622 0.314128,-9.29324 2.686849,-17.21222 7.117941,-23.75667 6.081001,-8.59163 12.756048,-17.40692 20.025358,-26.44593 4.35589,-7.54207 7.38641,-13.24072 9.09177,-17.09588 2.33234,4.51663 4.55412,11.70545 6.66525,21.56648 3.41818,14.92789 2.80074,29.28944 -1.85242,43.08507 -2.72492,8.62524 -4.39399,16.6422 -5.00721,24.05124 -0.85008,7.97946 -0.63315,15.14121 0.65067,21.48501 0.75947,-12.26147 2.17879,-22.41335 4.25753,-30.45557 3.58934,-11.84663 6.34768,-20.2867 8.27527,-25.32038 5.89826,-16.96224 6.87998,-30.72081 2.94474,-41.27565 -5.41626,-14.7067 -12.59835,-26.72751 -21.54609,-36.06249 -2.4656,16.35025 -7.21594,28.28857 -14.251149,35.81477 -5.4672,7.39132 -8.200892,11.08697 -8.200892,11.08697 -0.423545,0.50402 -0.635412,0.75601 -0.635412,0.75601 -0.133441,-22.87823 -0.200038,-34.31724 -0.200038,-34.31724 0.133411,-24.52631 0.200038,-36.78938 0.200038,-36.78938 -0.09186,-1.85403 -1.858923,-4.76537 -5.301373,-8.73401 -1.36002,-2.05512 -2.797256,-4.98359 -4.311306,-8.785592 -28.977952,0 -43.467036,0 -43.467036,0 -17.368451,0 -26.0525843,0 -26.0525843,0 0,-24.113566 0,-36.170453 0,-36.170453 z"
       style="fill:#333333;stroke:#ffffff;stroke-width:0;stroke-linecap:butt;stroke-linejoin:miter;stroke-dasharray:none;stroke-miterlimit:4"
       id="path1878"
       inkscape:connector-curvature="0"
       inkscape:export-xdpi="96"
       inkscape:export-ydpi="96" />
  </g>
</svg>
