<?xml version="1.0" encoding="UTF-8" standalone="no"?>
<svg
   xmlns:dc="http://purl.org/dc/elements/1.1/"
   xmlns:cc="http://creativecommons.org/ns#"
   xmlns:rdf="http://www.w3.org/1999/02/22-rdf-syntax-ns#"
   xmlns:svg="http://www.w3.org/2000/svg"
   xmlns="http://www.w3.org/2000/svg"
   xmlns:sodipodi="http://sodipodi.sourceforge.net/DTD/sodipodi-0.dtd"
   xmlns:inkscape="http://www.inkscape.org/namespaces/inkscape"
   version="1.1"
   width="1683.7795"
   height="1190.5511"
   id="svg1950"
   viewBox="0 0 1683.7795 1190.5511"
   sodipodi:docname="Logo_wb.svg"
   inkscape:export-filename="/home/meg/bitmap.png"
   inkscape:export-xdpi="96"
   inkscape:export-ydpi="96"
   inkscape:version="0.92.5 (2060ec1f9f, 2020-04-08)">
  <metadata
     id="metadata1956">
    <rdf:RDF>
      <cc:Work
         rdf:about="">
        <dc:format>image/svg+xml</dc:format>
        <dc:type
           rdf:resource="http://purl.org/dc/dcmitype/StillImage" />
        <dc:title />
      </cc:Work>
    </rdf:RDF>
  </metadata>
  <defs
     id="defs1954" />
  <sodipodi:namedview
     pagecolor="#ffffff"
     bordercolor="#666666"
     borderopacity="1"
     objecttolerance="10"
     gridtolerance="10"
     guidetolerance="10"
     inkscape:pageopacity="0"
     inkscape:pageshadow="2"
     inkscape:window-width="1920"
     inkscape:window-height="1043"
     id="namedview1952"
     showgrid="false"
     inkscape:zoom="0.25360909"
     inkscape:cx="-265.90984"
     inkscape:cy="106.75402"
     inkscape:window-x="0"
     inkscape:window-y="0"
     inkscape:window-maximized="1"
     inkscape:current-layer="layer1" />
  <path
     d="m 7.8145,243.5573 h 1675.9347 v 942.7132 H 7.8145 Z"
     style="fill:none"
     id="path1924"
     inkscape:connector-curvature="0" />
  <path
     d="m 7.8145,243.5573 v 942.7132 H 1683.7492 V 243.5573 Z"
     style="fill:#2c1462;fill-opacity:0;fill-rule:evenodd"
     id="path1928"
     inkscape:connector-curvature="0" />
  <path
     d="M 1683.7492,243.5573 H 618.706 l 920.1274,942.7132 h 144.9158 z"
     style="fill:#99424a;fill-opacity:0;fill-rule:evenodd"
     id="path1934"
     inkscape:connector-curvature="0" />
  <path
     d="m 618.706,243.5573 h 940.7493 l -480.6856,471.3566 z"
     style="fill:#570953;fill-opacity:0;fill-rule:evenodd"
     id="path1936"
     inkscape:connector-curvature="0" />
  <path
     d="M 1538.8334,1186.2705 1078.7697,714.9139 611.832,1186.2705 Z"
     style="fill:#c96e1a;fill-opacity:0;fill-rule:evenodd"
     id="path1938"
     inkscape:connector-curvature="0" />
  <path
     d="m 1247.3728,323.4604 0.9597,-185.7473 110.3088,0.57 -0.9525,184.3266 c 13.2933,-1.8559 33.2267,-1.8727 59.8009,-0.0496 19.2951,1.7881 35.8948,2.4668 49.7991,2.0366 l 146.5745,0.7573 -1.107,116.8221 -266.3002,-1.7563 c -1.3645,-0.4137 -3.6255,0.1273 -6.7831,1.6238 -6.8437,2.6565 -14.2152,1.5083 -22.1152,-3.4438 -8.2333,-5.898 -12.3496,-8.8474 -12.3496,-8.8474 12.7556,4.5054 23.5444,3.944 32.3663,-1.6837 5.478,-2.3233 10.0644,-9.6238 13.7587,-21.9013 5.2694,-1.5763 10.8633,-3.5267 16.7815,-5.8517 9.6041,-2.0376 16.8162,-7.4873 21.6364,-16.3493 1.3748,-3.2322 1.9969,-6.3347 1.8668,-9.3063 7.395,-4.6585 17.0697,-19.7339 29.025,-45.226 -13.0403,-0.7359 -28.398,-0.356 -46.0735,1.1391 -24.5276,0.7898 -48.2126,9.9136 -71.0543,27.3707 -12.1648,9.3872 -23.3269,18.273 -33.4856,26.6574 -8.3752,4.2468 -17.2982,4.2185 -26.7682,-0.085 -5.628,-3.2704 -10.3871,-10.0612 -14.2772,-20.371 -7.7842,-13.2179 -17.0166,-19.3244 -27.6971,-18.3189 -4.0122,0.328 -8.6828,2.7759 -14.0105,7.3452 -3.2588,3.6389 -6.6779,5.7084 -10.2573,6.2084 4.7252,3.019 9.0205,5.7159 12.8858,8.0915 7.9208,6.9124 14.5327,16.5231 19.837,28.8326 15.8409,39.5359 23.7611,59.3036 23.7611,59.3036 14.7129,24.0455 33.2504,46.1242 55.6111,66.2369 21.6394,19.6319 44.679,42.8164 69.1197,69.554 28.0921,28.4606 47.0651,69.5268 56.9196,123.1991 4.1832,56.7277 -4.8121,111.4627 -26.9873,164.2049 -19.6232,50.1392 -33.605,98.1526 -41.9447,144.0396 27.7895,-32.5397 51.6106,-66.9844 71.4639,-103.3342 23.275,-39.0364 37.941,-84.109 43.9981,-135.2178 5.1406,-47.8228 -5.983,-96.0436 -33.3709,-144.663 -21.0534,-34.8727 -47.9234,-66.9414 -80.6095,-96.2069 33.9029,16.6251 71.5265,47.5683 112.8707,92.831 35.2107,43.4208 48.9058,93.2794 41.0855,149.576 -8.8362,54.7594 -34.0687,110.0902 -75.6968,165.9923 -29.3443,34.5728 -47.4935,59.7427 -54.4478,75.5099 -11.7805,26.3122 -17.6711,39.468 -17.6711,39.468 -73.5389,-0.3799 -110.3087,-0.5699 -110.3087,-0.5699 0.3008,-58.2074 0.4511,-87.3111 0.4511,-87.3111 33.5166,42.1086 56.843,68.6424 69.9785,79.6014 -2.685,-22.0798 -3.8068,-46.0426 -3.3666,-71.889 -0.709,-32.9192 4.5398,-68.9569 15.7465,-108.1129 12.9286,-39.1609 19.3932,-58.741 19.3932,-58.741 -20.5269,34.1505 -34.8542,61.9327 -42.9825,83.3466 -8.5934,24.5686 -11.9615,47.5765 -10.1036,69.0229 1.8613,26.3953 2.792,39.5929 2.792,39.5929 -12.1682,-12.5128 -26.4506,-30.4769 -42.8459,-53.8935 -18.2314,-25.554 -29.0166,-56.8711 -32.3558,-93.9519 1.1697,-30.0104 8.9653,-55.5478 23.3862,-76.6114 19.784,-27.6481 41.4905,-56.0087 65.1199,-85.0819 14.1948,-24.2869 24.078,-42.642 29.6502,-55.0651 7.4579,14.6269 14.5138,37.8828 21.1679,69.7674 10.7911,48.2717 8.5571,94.6469 -6.7021,139.1269 -8.945,27.8126 -14.4696,53.6782 -16.5738,77.598 -2.8789,25.7581 -2.2977,48.893 1.743,69.4038 2.6576,-39.5897 7.4112,-72.355 14.2594,-98.2953 11.7906,-38.2029 20.8405,-65.4169 27.1503,-81.6427 19.3335,-54.6868 22.7339,-99.1083 10.1999,-133.2645 -17.2482,-47.5904 -40.2447,-86.5356 -68.9886,-116.8355 -8.2364,52.7675 -23.7783,91.2471 -46.6265,115.438 -17.7816,23.7816 -26.6726,35.6723 -26.6726,35.6723 -1.3764,1.6208 -2.0649,2.4312 -2.0649,2.4312 -0.049,-73.8952 -0.073,-110.8424 -0.073,-110.8424 0.8403,-79.2138 1.2601,-118.8203 1.2601,-118.8203 -0.2658,-5.9898 -5.9245,-15.4224 -16.9768,-28.298 -4.3584,-6.6603 -8.9516,-16.1428 -13.7782,-28.4479 -93.5941,-0.4836 -140.3915,-0.7254 -140.3915,-0.7254 -56.0972,-0.2898 -84.14551,-0.4348 -84.14551,-0.4348 0.4024,-77.8829 0.6036,-116.8246 0.6036,-116.8246 z"
     style="fill:#1b1918;fill-rule:evenodd;stroke:#ffffff;stroke-width:2.12599993;stroke-linecap:butt;stroke-linejoin:miter;stroke-dasharray:none"
     id="path1948"
     inkscape:connector-curvature="0" />
  <g
     inkscape:groupmode="layer"
     id="layer1"
     inkscape:label="Layer 1">
    <rect
       style="fill:#000007;fill-opacity:1"
       id="rect18"
       width="1537.7998"
       height="1794.0997"
       x="-240.52756"
       y="1127.4619"
       rx="83.273003"
       ry="83.273003" />
  </g>
  <g
     inkscape:groupmode="layer"
     id="layer2"
     inkscape:label="Layer 2">
    <path
       d="m 256.15114,1312.1776 v 942.7132 h 127.9973 l 938.78506,-942.7132 z"
       style="fill:#2c1462;fill-opacity:0;fill-rule:evenodd"
       id="path1930"
       inkscape:connector-curvature="0" />
    <path
       d="m 384.22564,2254.8442 273.7004,-274.846 -401.6977,-423.9346 v 698.7806 z"
       style="fill:#000147;fill-opacity:0;fill-rule:evenodd"
       id="path1932"
       inkscape:connector-curvature="0" />
    <path
       d="m 657.92604,1979.9982 434.83606,-436.6863 -836.53376,12.7517 z"
       style="fill:#c96e1a;fill-opacity:0;fill-rule:evenodd"
       id="path1940"
       inkscape:connector-curvature="0" />
    <path
       d="m 856.31804,2253.8814 h -476.0203 l 708.53656,-711.5322 234.4214,240.1756 z"
       style="fill:#570953;fill-opacity:0;fill-rule:evenodd"
       id="path1942"
       inkscape:connector-curvature="0" />
    <path
       d="M 1337.4944,1312.131 H 867.11984 l 220.68026,231.2565 z"
       style="fill:#570953;fill-opacity:0;fill-rule:evenodd"
       id="path1944"
       inkscape:connector-curvature="0" />
    <path
       d="m 852.21134,1396.2665 v -188.1107 h 111.7123 v 186.6721 c 13.4522,-1.9491 33.6387,-2.0704 60.55986,-0.3632 19.5495,1.7099 36.3634,2.3102 50.4421,1.8018 h 148.4396 l -0.5098,118.3112 -269.69066,-0.3852 c -1.384,-0.4117 -3.6709,0.148 -6.8607,1.6799 -6.9168,2.726 -14.3878,1.6019 -22.4141,-3.3717 -8.3687,-5.9298 -12.5527,-8.8951 -12.5527,-8.8951 12.9412,4.4959 23.864,3.8708 32.7685,-1.8745 5.5353,-2.3815 10.1419,-9.7987 13.8187,-22.2514 5.3282,-1.6239 10.9829,-3.6283 16.964,-6.0138 9.7154,-2.1137 16.9906,-7.6704 21.8257,-16.6702 1.3753,-3.2803 1.989,-6.4255 1.8418,-9.4341 7.46436,-4.7564 17.18316,-20.0738 29.15666,-45.9522 -13.2097,-0.677 -28.76016,-0.2119 -46.65236,1.3947 -24.8349,0.9282 -48.7729,10.2918 -71.8133,28.0899 -12.2702,9.5702 -23.5275,18.6272 -33.7713,27.1712 -8.4593,4.3446 -17.4957,4.3626 -27.1085,0.054 -5.7166,-3.2824 -10.5716,-10.1345 -14.5651,-20.5549 -7.9522,-13.345 -17.3337,-19.4808 -28.1446,-18.4066 -4.0614,0.3531 -8.7785,2.8566 -14.1499,7.5117 -3.2812,3.7023 -6.7328,5.8159 -10.3552,6.341 4.8011,3.0326 9.1651,5.7413 13.0918,8.1268 8.0576,6.9588 14.8036,16.6568 20.2398,29.0949 16.2489,39.9551 24.3731,59.9322 24.3731,59.9322 15.0255,24.2738 33.9138,46.5359 56.6638,66.787 22.0168,19.768 45.4704,43.1262 70.3612,70.0754 28.5978,28.675 48.02656,70.1633 58.28706,124.4656 4.5331,57.426 -4.2901,112.903 -26.47086,166.431 -19.61,50.8786 -33.5181,99.5748 -41.7235,146.088 27.9721,-33.0982 51.91526,-68.105 71.83056,-105.0202 23.3663,-39.6538 37.9826,-85.3754 43.8492,-137.1649 4.9557,-48.4569 -6.5616,-97.2318 -34.5516,-146.3252 -21.5031,-35.2053 -48.88206,-67.5406 -82.13636,-97.0066 34.4204,16.6588 72.68346,47.798 114.78946,93.419 35.885,43.7879 50.015,94.208 42.39,151.2602 -8.6619,55.501 -33.9253,111.6663 -75.7895,168.496 -29.5359,35.1653 -47.78386,60.7499 -54.74396,76.7537 -11.7924,26.708 -17.6889,40.0616 -17.6889,40.0616 -74.4746,0 -111.7123,0 -111.7123,0 0,-58.948 0,-88.4221 0,-88.4221 34.1625,42.4679 57.9238,69.2165 71.2835,80.246 -2.8347,-22.3461 -4.096,-46.6072 -3.7855,-72.7842 -0.8903,-33.3335 4.2366,-69.8562 15.3807,-109.568 12.8879,-39.7258 19.3322,-59.5884 19.3322,-59.5884 -20.609,34.6915 -34.9728,62.9015 -43.0923,84.6299 -8.5739,24.9254 -11.8643,48.2431 -9.8707,69.9521 2.0231,26.7207 3.0346,40.081 3.0346,40.081 -12.3881,-12.608 -26.9459,-30.7254 -43.6719,-54.3536 -18.5965,-25.7831 -29.6826,-57.4414 -33.2583,-94.9755 1.0275,-30.3976 8.7885,-56.3 23.2824,-77.7065 19.8905,-28.1026 41.7241,-56.9369 65.5016,-86.5029 14.2478,-24.6697 24.1604,-43.3095 29.7385,-55.9195 7.629,14.7737 14.8963,38.2878 21.8017,70.5425 11.1806,48.8282 9.1609,95.8039 -6.0592,140.9284 -8.9131,28.2126 -14.3725,54.4355 -16.3783,78.67 -2.7806,26.1003 -2.0709,49.5259 2.1284,70.2761 2.4841,-40.1064 7.1266,-73.3126 13.926,-99.6182 11.7405,-38.7495 20.7628,-66.3564 27.0679,-82.8213 19.29276,-55.4823 22.50386,-100.4857 9.6321,-135.0099 -17.7163,-48.1045 -41.2084,-87.4239 -70.4759,-117.958 -8.0648,53.4807 -23.6028,92.5301 -46.6145,117.1477 -17.8829,24.1766 -26.8246,36.2648 -26.8246,36.2648 -1.3854,1.6486 -2.0784,2.4728 -2.0784,2.4728 -0.4365,-74.8331 -0.6543,-112.2493 -0.6543,-112.2493 0.4364,-80.224 0.6543,-120.3357 0.6543,-120.3357 -0.3005,-6.0644 -6.0804,-15.5872 -17.3405,-28.5683 -4.4485,-6.7222 -9.1496,-16.301 -14.1019,-28.7371 -94.785,0 -142.1778,0 -142.1778,0 -56.8111,0 -85.2163,0 -85.2163,0 0,-78.8739 0,-118.3111 0,-118.3111 z"
       style="fill:#ffffff;stroke:#ffffff;stroke-width:2.15302277;stroke-linecap:butt;stroke-linejoin:miter;stroke-dasharray:none"
       id="path1946"
       inkscape:connector-curvature="0" />
  </g>
</svg>
